<svg xmlns="http://www.w3.org/2000/svg" viewBox="0 0 64 64" fill="#fff"><g id="Layer_9" data-name="Layer 9">
		 <path d="M27.26,41.9a2.7,2.7,0,0,0,.8,1.51c1,1,1.66.63,2.72,1.26L34,43.12c-1.29-1.32-2.22-.51-3.64-2s-.67-2.27-1.92-3.58-2-.5-3.34-1.7l-1.34,2.76a4.32,4.32,0,0,1,2.41,1.22A3.82,3.82,0,0,1,27.26,41.9Z"/>
		 <path d="M31.18,40.29a2.73,2.73,0,0,0,1.51.8,4.15,4.15,0,0,1,2.4,1.49l1-.51L26.66,32.6l-1,2.12c1.26,1.34,2.22.51,3.63,2S29.93,39,31.18,40.29Z"/><path d="M24.14,45a3.05,3.05,0,0,0,1.62,2.09l3.56-1.73a4.13,4.13,0,0,1-3.23-3.19,2.67,2.67,0,0,0-.8-1.51c-.76-.76-1.27-.68-2.09-1L22,42.2A4.29,4.29,0,0,1,24.14,45Z"/><path d="M24.49,47.73A4.2,4.2,0,0,1,23,45.31a3,3,0,0,0-1.5-2L20,46.22c1.09,1.15.74,1.9,1.42,3Z"/><path d="M19.46,47.42,17.7,51l2.68-1.3C19.82,48.88,20,48.2,19.46,47.42Z"/><path d="M52.54,4.39h-3A2.4,2.4,0,0,0,47.1,3.32,2.19,2.19,0,0,0,44.91,5.5V8.39H34.47V5.5a2.3,2.3,0,0,0-2.75-2.18A2.19,2.19,0,0,0,29.54,5.5V8.39H19.09V5.5A2.19,2.19,0,0,0,16.9,3.32a2.44,2.44,0,0,0-2.43,1.07h-3A7.61,7.61,0,0,0,3.85,12V53.08a7.61,7.61,0,0,0,7.61,7.6H52.54a7.61,7.61,0,0,0,7.61-7.6V12A7.61,7.61,0,0,0,52.54,4.39ZM16.34,14.67a2.3,2.3,0,0,0,2.75-2.19V9.59H29.54v2.89a2.3,2.3,0,0,0,2.74,2.19,2.19,2.19,0,0,0,2.19-2.19V9.59H44.91v2.89a2.31,2.31,0,0,0,2.75,2.19,2.19,2.19,0,0,0,2.19-2.19V9.59h2.69a2.4,2.4,0,0,1,2.4,2.4v4.34H9.05V12a2.41,2.41,0,0,1,2.4-2.4h2.71v2.89A2.19,2.19,0,0,0,16.34,14.67ZM42.47,46.86a.6.6,0,0,1,0,1.2H41a.6.6,0,0,1,0-1.2Zm0-2.35,1.06,1.05a.61.61,0,0,1-.43,1c-.37.07-1.21-1-1.48-1.23C41,44.81,41.91,44,42.45,44.51Zm-.85,5.06,1.06-1c.54-.56,1.4.3.85.84-.27.2-1.12,1.31-1.48,1.23A.6.6,0,0,1,41.6,49.57Zm1.58-9-.75-.75a.21.21,0,0,1,0-.06s0,1.11,0,1.15a.6.6,0,0,1-1.2,0c0-.05,0-1.14,0-1.15s0,0,0,.06c-.39.33-1,1.33-1.59.75s.25-1.08.79-1.63H39.28a.6.6,0,0,1,0-1.2h1a.6.6,0,0,1,.38,1.06.58.58,0,0,1,.64.68.58.58,0,0,1,.92,0,.59.59,0,0,1,.64-.69.59.59,0,0,1,.38-1.05c.52,0,1.64-.23,1.65.6a.6.6,0,0,1-.6.6H43.23c.54.55,1.33,1,.79,1.62A.59.59,0,0,1,43.18,40.58ZM18,38.94a.6.6,0,0,1,0-1.2h1.54a.6.6,0,0,1,0,1.2Zm0,2.45L17,40.29c-.56-.54.31-1.4.85-.84l1.09,1.09A.6.6,0,0,1,18.06,41.39Zm.77-17.48a.6.6,0,0,1,0-1.2h1.49a.6.6,0,0,1,0,1.2Zm.87-2.71c-.27.21-1.11,1.3-1.48,1.23a.6.6,0,0,1-.43-1l1.06-1.06C19.39,19.79,20.26,20.66,19.7,21.2Zm-1.06,3.16,1.06,1.05a.6.6,0,0,1-.85.85l-1.06-1.05C17.23,24.66,18.1,23.8,18.64,24.36Zm-.58,10.93c.54-.56,1.41.31.85.85-.27.2-1.15,1.35-1.52,1.27a.61.61,0,0,1-.42-1Zm-.72-14.07a.6.6,0,0,1-1.2,0V19.73a.6.6,0,0,1,1.2,0Zm-.6,3.62a.6.6,0,0,1,.6.6v1.49a.6.6,0,1,1-1.2,0V25.44A.6.6,0,0,1,16.74,24.84Zm-.28,9.79v1.54a.6.6,0,0,1-1.2,0V34.63A.6.6,0,0,1,16.46,34.63ZM14.65,22.71a.6.6,0,0,1,0,1.2H13.16a.6.6,0,0,1,0-1.2Zm0-2.36,1.06,1.06a.6.6,0,0,1-.85.84L13.79,21.2C13.23,20.66,14.09,19.79,14.63,20.35Zm-1,14.94,1.09,1.09a.59.59,0,0,1,0,.85.58.58,0,0,1-.84,0l-1.1-1.09C12.25,35.6,13.12,34.73,13.66,35.29Zm0,2.45a.6.6,0,0,1,0,1.2H12.15a.6.6,0,0,1,0-1.2Zm-.89,2.8,1.1-1.09a.59.59,0,0,1,.84.84c-.26.2-1.15,1.36-1.51,1.27A.6.6,0,0,1,12.81,40.54Zm1.82-14.28c-.54.56-1.4-.3-.84-.85l1.05-1.05c.54-.56,1.41.3.85.85Zm.63,14.29a.6.6,0,0,1,1.2,0V42.1a.6.6,0,0,1-1.2,0Zm.6,11.51,6.53-13.43h0L26,31.32a.6.6,0,0,1,1-.17L37.58,41.82a.59.59,0,0,1,.16.52.58.58,0,0,1-.33.44L31,45.89h0L21.53,50.5h0l-4.84,2.35A.61.61,0,0,1,15.86,52.06ZM26,25.27l-1.06-1.06c-.55-.55.31-1.41.85-.85l1.06,1.06A.6.6,0,0,1,26,25.27Zm.85,3c-.26.2-1.12,1.31-1.48,1.23a.6.6,0,0,1-.43-1L26,27.38C26.53,26.82,27.39,27.69,26.83,28.23Zm-1-2.51a.6.6,0,0,1,0,1.2H24.3a.6.6,0,0,1,0-1.2ZM32,23a8.18,8.18,0,0,1,0,11.56.6.6,0,0,1-.85-.85,7,7,0,0,0,0-9.86A.6.6,0,0,1,32,23Zm-.59-1.72V19.75a.6.6,0,0,1,1.2,0v1.49A.6.6,0,0,1,31.4,21.24Zm6.08,4.38-.9-.91c-.56-.54.3-1.41.84-.85l.91.91A.6.6,0,0,1,37.48,25.62Zm.85,2.54c-.26.2-.95,1.15-1.33,1.09a.61.61,0,0,1-.42-1l.9-.91C38,26.75,38.89,27.62,38.33,28.16Zm-.95-2.29a.6.6,0,0,1,.6.6c0,.88-1.24.53-1.88.6a.6.6,0,0,1-.6-.6C35.53,25.58,36.74,25.93,37.38,25.87Zm-1.8-1.94H34.09a.6.6,0,0,1,0-1.2h1.49A.6.6,0,0,1,35.58,23.93ZM35,21.22c-.27.21-1.11,1.31-1.48,1.23a.6.6,0,0,1-.42-1l1.06-1.06C34.65,19.81,35.51,20.68,35,21.22Zm-6.77,6.64A.6.6,0,0,1,29,27a3.2,3.2,0,0,1,0,4.54.58.58,0,0,1-.84,0,.59.59,0,0,1,0-.85A2,2,0,0,0,28.18,27.86Zm1.71-1.58c-.54.56-1.4-.3-.85-.85l1.06-1.05c.54-.56,1.41.31.85.85Zm.21-4L29,21.22c-.56-.54.31-1.4.85-.85L31,21.43A.6.6,0,0,1,30.1,22.28Zm-.19.45a.6.6,0,0,1,0,1.2H28.42a.6.6,0,0,1,0-1.2Zm5.28,15c-.54.56-1.41-.31-.85-.85a5.62,5.62,0,0,1,7.91,0,.6.6,0,0,1-.42,1,.57.57,0,0,1-.42-.17A4.41,4.41,0,0,0,35.19,37.72Zm6.5-3.14,1.05-1c.55-.56,1.41.3.85.84l-1.05,1.06A.6.6,0,0,1,41.69,34.58Zm2.27,15a.6.6,0,0,1,1.2,0v1.5a.6.6,0,0,1-1.2,0Zm.6-3.61a.6.6,0,0,1-.6-.6v-1.5a.6.6,0,0,1,1.2,0v1.5A.6.6,0,0,1,44.56,46Zm.08-9.28a.6.6,0,0,1-.6-.6V34.6a.6.6,0,1,1,1.2,0v1.5A.6.6,0,0,1,44.64,36.7Zm.43-3.78a.61.61,0,0,1-.85,0,5,5,0,0,0-1.38-1,.59.59,0,0,1-.28,1.11h-1.5a.6.6,0,0,1,0-1.2,13.66,13.66,0,0,1,1.71.05,5.12,5.12,0,0,0-5.86,1,.61.61,0,0,1-.85,0,.59.59,0,0,1,0-.85,6.36,6.36,0,0,1,9,0A.61.61,0,0,1,45.07,32.92Zm-6.49-9.54a.6.6,0,0,1,.6-.6c.89,0,.53,1.24.6,1.89a.6.6,0,0,1-.6.6C38.29,25.24,38.65,24,38.58,23.38Zm0,4.92a.6.6,0,0,1,.6-.6c.89,0,.53,1.24.6,1.89a.6.6,0,0,1-.6.6C38.29,30.16,38.65,29,38.58,28.3Zm3.2-3.59c-.25.2-1,1.14-1.33,1.08a.6.6,0,0,1-.42-1l.91-.91C41.48,23.3,42.34,24.17,41.78,24.71Zm.48,1.16a.6.6,0,0,1,.6.6c0,.88-1.24.53-1.88.6a.6.6,0,0,1-.6-.6C40.41,25.58,41.62,25.93,42.26,25.87Zm-1.38,1.44.9.91a.6.6,0,0,1-.84.85L40,28.16C39.47,27.62,40.33,26.76,40.88,27.31Zm6.68-3.64a.6.6,0,0,1,.6.6v1.49a.6.6,0,0,1-.6.6.6.6,0,0,1-.6-.6V24.27A.6.6,0,0,1,47.56,23.67ZM47,20.05V18.56a.6.6,0,0,1,1.2,0v1.49A.6.6,0,0,1,47,20.05Zm.64,9.47a.61.61,0,0,1,0,.85l-1.06,1.05a.59.59,0,0,1-.85,0,.61.61,0,0,1,0-.85l1.06-1.05A.59.59,0,0,1,47.6,29.52Zm-.85,5.91-1.06-1.06c-.55-.54.31-1.4.85-.84l1.06,1A.6.6,0,0,1,46.75,35.43Zm.76,9.93c-.27.2-1.11,1.3-1.48,1.23a.61.61,0,0,1-.42-1l1-1.05A.6.6,0,0,1,47.51,45.36Zm-2-23.82a.6.6,0,0,1,0,1.2H44a.6.6,0,0,1,0-1.2Zm0-2.36,1,1.06a.6.6,0,0,1-.85.85l-1-1.06C44.05,19.49,44.92,18.62,45.46,19.18ZM44.64,31a.6.6,0,0,1-.6-.6V28.9a.6.6,0,1,1,1.2,0v1.49A.6.6,0,0,1,44.64,31Zm0-5.9a.6.6,0,0,1,0-.84l1-1.06a.61.61,0,0,1,.85,0,.59.59,0,0,1,0,.85l-1,1.05A.59.59,0,0,1,44.61,25.09Zm1.85,23.43,1,1a.6.6,0,0,1-.42,1c-.37.08-1.21-1-1.48-1.23C45.05,48.82,45.92,48,46.46,48.52Zm.18-.46a.6.6,0,0,1,0-1.2h1.5a.6.6,0,0,1,0,1.2Zm1.58-15H46.73a.6.6,0,0,1,0-1.2h1.49A.6.6,0,0,1,48.22,33.07Zm.4-9c-.56-.54.3-1.41.85-.85l1.05,1.06a.6.6,0,0,1-.42,1C49.73,25.34,48.89,24.24,48.62,24Zm0-3.8,1.05-1.06c.54-.56,1.41.31.85.85-.27.21-1.11,1.31-1.48,1.23A.6.6,0,0,1,48.62,20.24Zm1,2.5a.6.6,0,0,1,0-1.2h1.49a.6.6,0,0,1,0,1.2Zm9.29,30.34a6.41,6.41,0,0,1-6.4,6.4H11.46a6.41,6.41,0,0,1-6.4-6.4V12a6.41,6.41,0,0,1,6.4-6.4h2.7v2.8H11.45A3.6,3.6,0,0,0,7.85,12V53.08a3.61,3.61,0,0,0,3.6,3.6H52.54a3.6,3.6,0,0,0,3.6-3.6V16.94s0,0,0,0V12a3.6,3.6,0,0,0-3.6-3.6H49.85V5.59h2.69a6.41,6.41,0,0,1,6.4,6.4Z"/>
	 </g>
</svg>